<svg xmlns="http://www.w3.org/2000/svg" version="1.1" xmlns:xlink="http://www.w3.org/1999/xlink" xmlns:svgjs="http://svgjs.dev/svgjs" width="2000" height="1500" viewBox="0 0 2000 1500"><rect width="2000" height="1500" fill="#000000"></rect><g transform="matrix(0.75,0,0,0.75,249.090909090909,601.0461784649682)"><svg viewBox="0 0 396 79" data-background-color="#ffffff" preserveAspectRatio="xMidYMid meet" height="398" width="2000" xmlns="http://www.w3.org/2000/svg" xmlns:xlink="http://www.w3.org/1999/xlink"><g id="tight-bounds" transform="matrix(1,0,0,1,0.2400000000000091,-0.07838559039359438)"><svg viewBox="0 0 395.52 79.15677118078719" height="79.15677118078719" width="395.52"><g><svg viewBox="0 0 395.52 79.15677118078719" height="79.15677118078719" width="395.52"><g><svg viewBox="0 0 395.52 79.15677118078719" height="79.15677118078719" width="395.52"><g><svg viewBox="0 0 395.52 79.15677118078719" height="79.15677118078719" width="395.52"><g><svg viewBox="0 0 395.52 79.15677118078719" height="79.15677118078719" width="395.52"><g id="textblocktransform"><svg viewBox="0 0 395.52 79.15677118078719" height="79.15677118078719" width="395.52" id="textblock"><g><svg viewBox="0 0 395.52 79.15677118078719" height="79.15677118078719" width="395.52"><g transform="matrix(1,0,0,1,0,0)"><svg width="395.52" viewBox="1.7 -43.65 224.83 45" height="79.15677118078719" data-palette-color="#e65728"><path d="M16.35 0.4Q9.7 0.4 5.7-2.13 1.7-4.65 1.7-9.85L1.7-9.85Q1.7-12.6 2.65-14.05 3.6-15.5 5.45-15.5L5.45-15.5Q6.8-15.5 7.65-14.8 8.5-14.1 8.5-13L8.5-13Q8.5-12 8.35-11.25L8.35-11.25Q8.35-11.05 8.28-10.55 8.2-10.05 8.2-9.5L8.2-9.5Q8.2-7.25 10.48-6.15 12.75-5.05 16.85-5.05L16.85-5.05Q21.1-5.05 23.5-6.58 25.9-8.1 25.9-10.85L25.9-10.85Q25.9-12.55 24.8-13.78 23.7-15 22.05-15.83 20.4-16.65 17.4-17.85L17.4-17.85Q13.55-19.35 11.13-20.7 8.7-22.05 6.98-24.38 5.25-26.7 5.25-30.15L5.25-30.15Q5.25-33.75 7.18-36.55 9.1-39.35 12.73-40.9 16.35-42.45 21.25-42.45L21.25-42.45Q24.9-42.45 27.95-41.38 31-40.3 32.83-38.1 34.65-35.9 34.65-32.7L34.65-32.7Q34.65-29.55 33.7-27.95 32.75-26.35 30.9-26.35L30.9-26.35Q29.6-26.35 28.73-27.15 27.85-27.95 27.85-29.05L27.85-29.05Q27.85-30 28-30.8L28-30.8Q28.15-32.3 28.15-32.7L28.15-32.7Q28.15-34.8 26.1-35.9 24.05-37 21-37L21-37Q16.7-37 14.43-35.43 12.15-33.85 12.15-31L12.15-31Q12.15-29.1 13.33-27.75 14.5-26.4 16.25-25.5 18-24.6 21.15-23.35L21.15-23.35Q24.95-21.8 27.25-20.55 29.55-19.3 31.18-17.15 32.8-15 32.8-11.85L32.8-11.85Q32.8-5.95 28.33-2.78 23.85 0.4 16.35 0.4L16.35 0.4ZM46.6 0.25Q41.7 0.25 38.97-2.53 36.25-5.3 36.25-9.85L36.25-9.85Q36.25-13.9 37.85-16.95 39.45-20 42-21.65 44.55-23.3 47.35-23.3L47.35-23.3Q50.1-23.3 51.62-21.68 53.15-20.05 53.15-17.5L53.15-17.5Q53.15-15.4 52.22-13.95 51.3-12.5 49.8-12.5L49.8-12.5Q48.85-12.5 48.27-12.95 47.7-13.4 47.7-14.2L47.7-14.2Q47.7-14.55 47.8-15 47.9-15.45 47.95-15.65L47.95-15.65Q48.2-16.4 48.2-17.05L48.2-17.05Q48.2-17.7 47.87-18.05 47.55-18.4 46.95-18.4L46.95-18.4Q45.8-18.4 44.8-17.38 43.8-16.35 43.2-14.6 42.6-12.85 42.6-10.75L42.6-10.75Q42.6-4.95 47.65-4.95L47.65-4.95Q49.7-4.95 52.07-6.33 54.45-7.7 56.75-10.45L56.75-10.45Q57.35-11.15 58.1-11.15L58.1-11.15Q58.75-11.15 59.12-10.55 59.5-9.95 59.5-8.9L59.5-8.9Q59.5-7 58.55-5.8L58.55-5.8Q56.2-2.9 52.92-1.33 49.65 0.25 46.6 0.25L46.6 0.25ZM59 0.25Q57.09 0.25 56.32-1.75 55.55-3.75 55.55-8.15L55.55-8.15Q55.55-14.65 57.4-20.5L57.4-20.5Q57.84-21.95 58.87-22.63 59.9-23.3 61.75-23.3L61.75-23.3Q62.75-23.3 63.15-23.05 63.55-22.8 63.55-22.1L63.55-22.1Q63.55-21.3 62.8-18.5L62.8-18.5Q62.3-16.5 62-15 61.7-13.5 61.5-11.3L61.5-11.3Q63.15-15.6 65.2-18.3 67.25-21 69.22-22.15 71.2-23.3 72.84-23.3L72.84-23.3Q76.09-23.3 76.09-20.05L76.09-20.05Q76.09-19.4 75.65-16.9L75.65-16.9Q75.25-14.9 75.25-14.4L75.25-14.4Q75.25-12.65 76.5-12.65L76.5-12.65Q77.9-12.65 80.09-14.85L80.09-14.85Q80.75-15.5 81.45-15.5L81.45-15.5Q82.09-15.5 82.47-14.93 82.84-14.35 82.84-13.4L82.84-13.4Q82.84-11.55 81.84-10.5L81.84-10.5Q80.45-9.05 78.57-8.03 76.7-7 74.59-7L74.59-7Q71.95-7 70.57-8.35 69.2-9.7 69.2-12L69.2-12Q69.2-12.75 69.34-13.5L69.34-13.5Q69.45-14.5 69.45-14.85L69.45-14.85Q69.45-15.65 68.9-15.65L68.9-15.65Q68.15-15.65 66.92-13.98 65.7-12.3 64.5-9.55 63.3-6.8 62.55-3.75L62.55-3.75Q62-1.4 61.27-0.58 60.55 0.25 59 0.25L59 0.25ZM83.29 0.25Q81.04 0.25 79.62-1.83 78.19-3.9 78.19-7L78.19-7Q78.19-10.75 78.69-13.88 79.19-17 80.34-20.5L80.34-20.5Q80.84-22 81.74-22.65 82.64-23.3 84.59-23.3L84.59-23.3Q85.69-23.3 86.12-22.95 86.54-22.6 86.54-21.9L86.54-21.9Q86.54-21.5 85.99-19.2L85.99-19.2Q85.49-17.35 85.19-15.85L85.19-15.85Q84.19-10.6 84.19-8.85L84.19-8.85Q84.19-7.8 84.44-7.38 84.69-6.95 85.24-6.95L85.24-6.95Q85.99-6.95 87.12-8.45 88.24-9.95 89.52-13 90.79-16.05 91.99-20.5L91.99-20.5Q92.39-22 93.22-22.65 94.04-23.3 95.69-23.3L95.69-23.3Q96.84-23.3 97.29-23.03 97.74-22.75 97.74-22L97.74-22Q97.74-20.75 96.49-15.15L96.49-15.15Q95.09-8.75 95.09-7.25L95.09-7.25Q95.09-6.3 95.49-5.78 95.89-5.25 96.54-5.25L96.54-5.25Q97.54-5.25 98.92-6.48 100.29-7.7 102.59-10.45L102.59-10.45Q103.19-11.15 103.94-11.15L103.94-11.15Q104.59-11.15 104.97-10.55 105.34-9.95 105.34-8.9L105.34-8.9Q105.34-6.9 104.39-5.8L104.39-5.8Q102.24-3.15 99.77-1.45 97.29 0.25 94.14 0.25L94.14 0.25Q91.74 0.25 90.62-1.6 89.49-3.45 89.49-6.8L89.49-6.8Q88.64-3.4 86.94-1.58 85.24 0.25 83.29 0.25L83.29 0.25ZM104.84 0.25Q102.94 0.25 102.17-1.75 101.39-3.75 101.39-8.15L101.39-8.15Q101.39-14.65 103.24-20.5L103.24-20.5Q103.69-21.95 104.72-22.63 105.74-23.3 107.59-23.3L107.59-23.3Q108.59-23.3 108.99-23.05 109.39-22.8 109.39-22.1L109.39-22.1Q109.39-21.3 108.64-18.5L108.64-18.5Q108.14-16.5 107.84-15.03 107.54-13.55 107.34-11.35L107.34-11.35Q108.69-15.25 110.57-17.95 112.44-20.65 114.42-21.98 116.39-23.3 118.14-23.3L118.14-23.3Q119.89-23.3 120.62-22.5 121.34-21.7 121.34-20.05L121.34-20.05Q121.34-18.45 120.39-14.25L120.39-14.25Q119.99-12.45 119.84-11.55L119.84-11.55Q122.34-17.7 125.39-20.5 128.44-23.3 131.09-23.3L131.09-23.3Q134.34-23.3 134.34-20.05L134.34-20.05Q134.34-18.1 133.24-13L133.24-13Q132.29-8.65 132.29-7.25L132.29-7.25Q132.29-5.25 133.74-5.25L133.74-5.25Q134.74-5.25 136.12-6.48 137.49-7.7 139.79-10.45L139.79-10.45Q140.39-11.15 141.14-11.15L141.14-11.15Q141.79-11.15 142.17-10.55 142.54-9.95 142.54-8.9L142.54-8.9Q142.54-6.9 141.59-5.8L141.59-5.8Q139.44-3.15 136.97-1.45 134.49 0.25 131.34 0.25L131.34 0.25Q128.79 0.25 127.49-1.23 126.19-2.7 126.19-5.5L126.19-5.5Q126.19-6.9 126.89-10.5L126.89-10.5Q127.54-13.65 127.54-14.85L127.54-14.85Q127.54-15.65 126.99-15.65L126.99-15.65Q126.34-15.65 125.14-13.98 123.94-12.3 122.74-9.55 121.54-6.8 120.79-3.75L120.79-3.75Q120.24-1.35 119.52-0.55 118.79 0.25 117.19 0.25L117.19 0.25Q115.54 0.25 114.72-1.33 113.89-2.9 113.89-5.15L113.89-5.15Q113.89-7.05 114.39-10.65L114.39-10.65Q114.79-13.85 114.79-14.85L114.79-14.85Q114.79-15.65 114.24-15.65L114.24-15.65Q113.49-15.65 112.34-13.85 111.19-12.05 110.12-9.25 109.04-6.45 108.39-3.75L108.39-3.75Q107.84-1.4 107.12-0.58 106.39 0.25 104.84 0.25L104.84 0.25ZM147.79 1.35Q145.19 1.35 143.81 0.15 142.44-1.05 142.44-2.55L142.44-2.55Q142.44-3.85 143.39-4.8 144.34-5.75 146.19-5.75L146.19-5.75Q146.84-5.75 147.71-5.63 148.59-5.5 149.04-5.45L149.04-5.45Q148.99-6.75 148.46-7.9 147.94-9.05 147.14-10.13 146.34-11.2 145.64-12L145.64-12Q144.09-9.05 142.56-7.1 141.04-5.15 139.24-3.4L139.24-3.4Q138.34-2.5 137.34-2.5L137.34-2.5Q136.54-2.5 136.04-3.08 135.54-3.65 135.54-4.5L135.54-4.5Q135.54-5.5 136.24-6.35L136.24-6.35 136.89-7.15Q139.64-10.55 141.04-12.75L141.04-12.75Q141.89-14.2 143.04-16.63 144.19-19.05 145.29-21.65L145.29-21.65Q146.24-23.85 149.24-23.85L149.24-23.85Q150.64-23.85 151.19-23.6 151.74-23.35 151.74-22.8L151.74-22.8Q151.74-22.5 151.54-21.85 151.34-21.2 150.99-20.55L150.99-20.55Q150.09-18.75 150.09-17.5L150.09-17.5Q150.09-16.75 150.61-15.85 151.14-14.95 152.24-13.6L152.24-13.6Q153.84-11.5 154.66-10.03 155.49-8.55 155.49-6.8L155.49-6.8Q155.49-6.3 155.39-5.4L155.39-5.4Q157.84-6.35 161.14-10.45L161.14-10.45Q161.74-11.15 162.49-11.15L162.49-11.15Q163.14-11.15 163.51-10.55 163.89-9.95 163.89-8.9L163.89-8.9Q163.89-7 162.94-5.8L162.94-5.8Q160.44-2.7 158.16-1.58 155.89-0.45 152.54-0.35L152.54-0.35Q150.54 1.35 147.79 1.35L147.79 1.35ZM182.14-11.15Q182.79-11.15 183.16-10.55 183.54-9.95 183.54-8.9L183.54-8.9Q183.54-6.9 182.59-5.8L182.59-5.8Q180.44-3.15 177.89-1.45 175.34 0.25 172.04 0.25L172.04 0.25Q161.84 0.25 161.84-14.1L161.84-14.1Q161.84-16.3 161.99-18.55L161.99-18.55 160.04-18.55Q158.54-18.55 158.01-19.1 157.49-19.65 157.49-20.85L157.49-20.85Q157.49-23.65 159.74-23.65L159.74-23.65 162.59-23.65Q163.44-29.15 165.19-33.7 166.94-38.25 169.41-40.95 171.89-43.65 174.74-43.65L174.74-43.65Q176.84-43.65 178.04-41.8 179.24-39.95 179.24-37.15L179.24-37.15Q179.24-29.4 172.74-23.65L172.74-23.65 178.34-23.65Q179.14-23.65 179.49-23.3 179.84-22.95 179.84-22L179.84-22Q179.84-18.55 174.19-18.55L174.19-18.55 168.09-18.55Q167.99-16.05 167.99-14.65L167.99-14.65Q167.99-9.45 169.21-7.35 170.44-5.25 173.09-5.25L173.09-5.25Q175.24-5.25 176.89-6.55 178.54-7.85 180.79-10.45L180.79-10.45Q181.39-11.15 182.14-11.15L182.14-11.15ZM173.39-38.85Q172.64-38.85 171.71-36.98 170.79-35.1 169.96-31.78 169.14-28.45 168.59-24.4L168.59-24.4Q171.54-26.95 173.01-30.13 174.49-33.3 174.49-35.9L174.49-35.9Q174.49-38.85 173.39-38.85L173.39-38.85ZM201.78-11.15Q202.43-11.15 202.81-10.55 203.18-9.95 203.18-8.9L203.18-8.9Q203.18-6.9 202.23-5.8L202.23-5.8Q200.38-3.55 197.01-1.65 193.63 0.25 189.78 0.25L189.78 0.25Q184.53 0.25 181.63-2.6 178.73-5.45 178.73-10.4L178.73-10.4Q178.73-13.85 180.18-16.82 181.63-19.8 184.21-21.55 186.78-23.3 190.03-23.3L190.03-23.3Q192.93-23.3 194.68-21.58 196.43-19.85 196.43-16.9L196.43-16.9Q196.43-13.45 193.96-10.98 191.48-8.5 185.58-7.05L185.58-7.05Q186.83-4.75 190.33-4.75L190.33-4.75Q192.58-4.75 195.46-6.33 198.33-7.9 200.43-10.45L200.43-10.45Q201.03-11.15 201.78-11.15L201.78-11.15ZM189.18-18.4Q187.33-18.4 186.06-16.25 184.78-14.1 184.78-11.05L184.78-11.05 184.78-10.95Q187.73-11.65 189.43-13.05 191.13-14.45 191.13-16.3L191.13-16.3Q191.13-17.25 190.61-17.82 190.08-18.4 189.18-18.4L189.18-18.4ZM202.68 0.25Q200.78 0.25 200.01-1.75 199.23-3.75 199.23-8.15L199.23-8.15Q199.23-14.65 201.08-20.5L201.08-20.5Q201.53-21.95 202.56-22.63 203.58-23.3 205.43-23.3L205.43-23.3Q206.43-23.3 206.83-23.05 207.23-22.8 207.23-22.1L207.23-22.1Q207.23-21.3 206.48-18.5L206.48-18.5Q205.98-16.5 205.68-15 205.38-13.5 205.18-11.3L205.18-11.3Q206.83-15.6 208.88-18.3 210.93-21 212.91-22.15 214.88-23.3 216.53-23.3L216.53-23.3Q219.78-23.3 219.78-20.05L219.78-20.05Q219.78-19.4 219.33-16.9L219.33-16.9Q218.93-14.9 218.93-14.4L218.93-14.4Q218.93-12.65 220.18-12.65L220.18-12.65Q221.58-12.65 223.78-14.85L223.78-14.85Q224.43-15.5 225.13-15.5L225.13-15.5Q225.78-15.5 226.16-14.93 226.53-14.35 226.53-13.4L226.53-13.4Q226.53-11.55 225.53-10.5L225.53-10.5Q224.13-9.05 222.26-8.03 220.38-7 218.28-7L218.28-7Q215.63-7 214.26-8.35 212.88-9.7 212.88-12L212.88-12Q212.88-12.75 213.03-13.5L213.03-13.5Q213.13-14.5 213.13-14.85L213.13-14.85Q213.13-15.65 212.58-15.65L212.58-15.65Q211.83-15.65 210.61-13.98 209.38-12.3 208.18-9.55 206.98-6.8 206.23-3.75L206.23-3.75Q205.68-1.4 204.96-0.58 204.23 0.25 202.68 0.25L202.68 0.25Z" opacity="1" transform="matrix(1,0,0,1,0,0)" fill="#ffffff" class="wordmark-text-0" data-fill-palette-color="primary" id="text-0"></path></svg></g></svg></g></svg></g></svg></g><g></g></svg></g></svg></g></svg></g><defs></defs></svg><rect width="395.52" height="79.15677118078719" fill="none" stroke="none" visibility="hidden"></rect></g></svg></g></svg>